<?xml version="1.0" standalone="no"?>
<!DOCTYPE svg PUBLIC "-//W3C//DTD SVG 20010904//EN"
 "http://www.w3.org/TR/2001/REC-SVG-20010904/DTD/svg10.dtd">
<svg version="1.0" xmlns="http://www.w3.org/2000/svg"
 width="1056.000000pt" height="816.000000pt" viewBox="0 0 1056.000000 816.000000"
 preserveAspectRatio="xMidYMid meet">

<g transform="translate(0.000000,816.000000) scale(0.100000,-0.100000)"
fill="#000000" stroke="none">
<path d="M1700 4881 c0 -5 58 -214 129 -463 71 -250 137 -492 146 -538 32
-161 38 -128 19 115 -4 46 -46 211 -123 480 -115 406 -117 410 -144 413 -15 2
-27 -1 -27 -7z"/>
<path d="M2250 4095 l0 -795 -121 0 c-109 0 -120 -2 -117 -17 3 -16 20 -18
156 -21 l152 -3 0 816 0 815 -35 0 -35 0 0 -795z"/>
<path d="M3810 4881 c0 -5 58 -214 129 -463 71 -250 137 -492 146 -538 22
-111 35 -133 30 -50 -3 36 -7 103 -11 150 -4 67 -31 173 -123 495 -115 406
-117 410 -144 413 -15 2 -27 -1 -27 -7z"/>
<path d="M4360 4095 l0 -795 -121 0 c-109 0 -120 -2 -117 -17 3 -16 20 -18
156 -21 l152 -3 0 816 0 815 -35 0 -35 0 0 -795z"/>
<path d="M6840 4560 l0 -330 35 0 35 0 0 330 0 330 -35 0 -35 0 0 -330z"/>
<path d="M7430 4095 l0 -795 -100 0 c-93 0 -100 -1 -100 -20 0 -19 7 -20 135
-20 l135 0 0 815 0 815 -35 0 -35 0 0 -795z"/>
<path d="M7930 4095 l0 -795 -100 0 c-93 0 -100 -1 -100 -20 0 -19 7 -20 135
-20 l135 0 0 815 0 815 -35 0 -35 0 0 -795z"/>
<path d="M8490 4881 c0 -5 58 -214 129 -463 71 -250 137 -492 146 -538 21
-105 37 -136 30 -60 -2 30 -7 96 -9 146 -5 77 -23 152 -123 505 -117 410 -119
414 -146 417 -15 2 -27 -1 -27 -7z"/>
<path d="M9040 4095 l0 -795 -121 0 c-109 0 -120 -2 -117 -17 3 -16 20 -18
156 -21 l152 -3 0 816 0 815 -35 0 -35 0 0 -795z"/>
<path d="M5261 4848 c83 -78 127 -226 103 -346 -6 -30 -6 -30 -85 -34 -76 -3
-98 -12 -99 -41 0 -8 240 1 249 9 2 2 6 34 8 71 11 149 -59 291 -172 350 l-30
16 26 -25z"/>
<path d="M3193 4818 c94 -114 99 -156 95 -743 -4 -529 -4 -531 -69 -628 -95
-144 -314 -204 -514 -142 -11 3 -3 -3 17 -15 66 -36 154 -53 248 -47 145 9
254 65 319 164 65 97 65 99 69 628 3 511 0 569 -43 662 -24 52 -93 130 -135
153 -19 10 -16 4 13 -32z"/>
<path d="M2805 4721 c-29 -12 -55 -44 -71 -88 -17 -48 -20 -965 -4 -1025 13
-44 52 -93 80 -101 19 -5 19 -4 2 27 -15 28 -17 79 -20 519 -2 328 1 500 8
527 18 66 56 100 120 109 l55 7 -32 17 c-33 18 -104 22 -138 8z"/>
<path d="M4915 4721 c-11 -5 -28 -18 -38 -29 -44 -49 -46 -72 -46 -582 -1
-450 1 -488 18 -525 19 -41 43 -68 73 -78 15 -5 15 -2 -3 36 -17 39 -19 72
-19 522 0 307 4 494 11 518 17 62 56 98 114 104 l48 6 -22 18 c-25 20 -98 25
-136 10z"/>
<path d="M1628 4375 c4 -49 6 -310 7 -580 l0 -490 -92 -3 c-85 -2 -93 -4 -93
-22 0 -19 7 -20 130 -20 l130 0 -2 443 -3 442 -33 130 c-50 197 -51 200 -44
100z"/>
<path d="M3735 4425 c3 -22 8 -284 11 -582 l7 -543 -97 0 c-89 0 -96 -1 -96
-20 0 -19 7 -20 130 -20 l131 0 -3 443 -3 442 -33 130 c-18 72 -37 144 -42
160 -9 27 -9 27 -5 -10z"/>
<path d="M8415 4425 c3 -22 8 -284 11 -582 l6 -543 -96 0 c-89 0 -96 -1 -96
-20 0 -19 7 -20 131 -20 l130 0 -3 443 -3 442 -33 130 c-18 72 -37 144 -42
160 -9 27 -9 27 -5 -10z"/>
<path d="M5380 3903 c0 -337 -11 -395 -95 -499 -19 -22 -60 -54 -92 -71 -112
-59 -230 -68 -373 -29 -17 4 -13 0 12 -14 162 -89 420 -52 523 74 85 105 95
160 95 519 l0 287 -35 0 -35 0 0 -267z"/>
<path d="M6369 4113 c0 -10 0 -46 0 -80 l-1 -63 -359 0 c-352 0 -359 0 -359
-20 0 -20 7 -20 395 -20 l395 0 0 100 0 100 -35 0 c-26 0 -35 -4 -36 -17z"/>
<path d="M6840 3660 l0 -360 -100 0 c-93 0 -100 -1 -100 -20 0 -19 7 -20 135
-20 l135 0 0 360 0 360 125 0 c118 0 125 1 125 20 0 19 -7 20 -160 20 l-160 0
0 -360z"/>
<path d="M5060 3990 c0 -16 7 -20 35 -20 28 0 35 4 35 20 0 16 -7 20 -35 20
-28 0 -35 -4 -35 -20z"/>
</g>
</svg>
