<?xml version="1.0" standalone="no"?>
<!DOCTYPE svg PUBLIC "-//W3C//DTD SVG 20010904//EN"
 "http://www.w3.org/TR/2001/REC-SVG-20010904/DTD/svg10.dtd">
<svg version="1.0" xmlns="http://www.w3.org/2000/svg"
 width="768.000000pt" height="512.000000pt" viewBox="0 0 768.000000 512.000000"
 preserveAspectRatio="xMidYMid meet">

<g transform="translate(0.000000,512.000000) scale(0.100000,-0.100000)"
fill="#000000" stroke="none">
<path d="M1521 2598 c-57 -282 -106 -519 -109 -525 -3 -10 -37 -13 -123 -13
l-119 0 0 -25 0 -25 119 0 c105 0 120 2 125 18 14 48 217 1065 214 1073 -2 6
-50 -221 -107 -503z"/>
<path d="M3171 2598 c-57 -282 -106 -519 -109 -525 -3 -10 -37 -13 -123 -13
l-119 0 0 -25 0 -25 119 0 c105 0 120 2 125 18 14 48 217 1065 214 1073 -2 6
-50 -221 -107 -503z"/>
<path d="M5185 2924 c-21 -104 -40 -200 -43 -214 -3 -14 -2 -22 2 -19 8 8 87
400 83 413 -2 6 -21 -75 -42 -180z"/>
<path d="M5687 3093 c-3 -10 -52 -246 -108 -525 l-103 -508 -103 0 -103 0 0
-25 0 -25 103 0 103 0 111 547 c61 302 110 549 108 551 -2 2 -6 -5 -8 -15z"/>
<path d="M6066 3038 c-23 -107 -196 -961 -196 -970 0 -4 -46 -9 -102 -10 -98
-3 -103 -4 -106 -25 -3 -23 -2 -23 102 -23 58 0 106 4 106 8 0 5 49 251 110
547 60 296 108 540 106 542 -2 2 -11 -29 -20 -69z"/>
<path d="M6841 2598 c-57 -282 -106 -519 -109 -525 -3 -10 -37 -13 -123 -13
l-119 0 0 -25 0 -25 119 0 c105 0 120 2 125 18 14 48 217 1065 214 1073 -2 6
-50 -221 -107 -503z"/>
<path d="M2018 3005 c-14 -8 -35 -34 -46 -57 -20 -42 -147 -629 -140 -649 2
-5 29 118 61 273 32 156 67 302 79 326 24 51 60 72 123 72 35 0 52 -6 70 -25
l25 -24 0 25 c0 14 -11 36 -25 49 -19 20 -34 25 -72 25 -26 -1 -60 -7 -75 -15z"/>
<path d="M3668 3005 c-14 -8 -35 -34 -46 -57 -20 -42 -147 -629 -140 -649 2
-5 29 118 61 273 32 156 67 302 79 326 11 24 33 49 49 57 42 22 115 19 139 -5
l20 -20 0 25 c0 41 -33 65 -87 65 -27 -1 -60 -7 -75 -15z"/>
<path d="M4023 2893 l-9 -38 -83 -7 c-100 -8 -107 -10 -114 -38 -5 -21 -4 -21
91 -14 53 3 100 9 103 13 9 8 31 113 25 118 -2 2 -8 -13 -13 -34z"/>
<path d="M2392 2885 c0 -16 2 -22 5 -12 2 9 2 23 0 30 -3 6 -5 -1 -5 -18z"/>
<path d="M2327 2571 c-32 -157 -67 -303 -79 -329 -56 -119 -193 -192 -359
-192 -119 0 -209 42 -249 118 -16 31 -19 33 -20 14 0 -35 36 -98 74 -127 93
-71 282 -73 417 -5 54 28 110 86 136 142 21 44 147 630 140 651 -1 5 -29 -117
-60 -272z"/>
<path d="M1072 2805 c0 -16 2 -22 5 -12 2 9 2 23 0 30 -3 6 -5 -1 -5 -18z"/>
<path d="M2722 2805 c0 -16 2 -22 5 -12 2 9 2 23 0 30 -3 6 -5 -1 -5 -18z"/>
<path d="M6392 2805 c0 -16 2 -22 5 -12 2 9 2 23 0 30 -3 6 -5 -1 -5 -18z"/>
<path d="M1062 2715 c0 -16 2 -22 5 -12 2 9 2 23 0 30 -3 6 -5 -1 -5 -18z"/>
<path d="M2712 2715 c0 -16 2 -22 5 -12 2 9 2 23 0 30 -3 6 -5 -1 -5 -18z"/>
<path d="M6382 2715 c0 -16 2 -22 5 -12 2 9 2 23 0 30 -3 6 -5 -1 -5 -18z"/>
<path d="M1002 2418 c-29 -145 -58 -284 -63 -310 l-11 -48 -93 0 c-93 0 -105
-5 -105 -41 0 -5 45 -9 100 -9 55 0 100 1 100 3 0 1 29 146 65 322 36 175 64
325 63 333 -2 7 -27 -105 -56 -250z"/>
<path d="M2652 2418 c-29 -145 -58 -284 -63 -310 l-11 -48 -93 0 c-93 0 -105
-5 -105 -41 0 -5 45 -9 100 -9 55 0 100 1 100 3 0 1 29 146 65 322 36 175 64
325 63 333 -2 7 -27 -105 -56 -250z"/>
<path d="M6322 2418 c-29 -145 -58 -284 -63 -310 l-11 -48 -93 0 c-93 0 -105
-5 -105 -41 0 -5 45 -9 100 -9 55 0 100 1 100 3 0 1 29 146 65 322 36 175 64
325 63 333 -2 7 -27 -105 -56 -250z"/>
<path d="M1092 2645 c0 -16 2 -22 5 -12 2 9 2 23 0 30 -3 6 -5 -1 -5 -18z"/>
<path d="M2742 2645 c0 -16 2 -22 5 -12 2 9 2 23 0 30 -3 6 -5 -1 -5 -18z"/>
<path d="M6412 2645 c0 -16 2 -22 5 -12 2 9 2 23 0 30 -3 6 -5 -1 -5 -18z"/>
<path d="M3941 2454 c-41 -201 -72 -270 -143 -324 -65 -49 -129 -71 -224 -77
-139 -10 -239 31 -283 114 -17 32 -20 34 -21 15 0 -38 38 -100 80 -131 55 -40
125 -55 224 -48 95 6 159 28 223 77 74 56 98 112 144 326 22 103 38 195 37
203 -2 8 -18 -62 -37 -155z"/>
<path d="M4836 2555 l-18 -45 -300 -2 -301 -3 -8 -22 -8 -23 308 0 308 0 27
63 c28 67 31 77 17 77 -4 0 -16 -20 -25 -45z"/>
<path d="M1102 2565 c0 -16 2 -22 5 -12 2 9 2 23 0 30 -3 6 -5 -1 -5 -18z"/>
<path d="M2752 2565 c0 -16 2 -22 5 -12 2 9 2 23 0 30 -3 6 -5 -1 -5 -18z"/>
<path d="M6422 2565 c0 -16 2 -22 5 -12 2 9 2 23 0 30 -3 6 -5 -1 -5 -18z"/>
<path d="M5106 2533 c-3 -10 -23 -112 -46 -228 -23 -115 -43 -218 -46 -227 -5
-16 -19 -18 -104 -18 -98 0 -110 -4 -110 -41 0 -5 47 -9 104 -9 91 0 105 2
110 18 3 9 23 112 46 227 23 116 43 218 46 227 4 15 22 18 127 20 118 3 122 4
125 26 3 22 2 22 -122 22 -110 0 -125 -2 -130 -17z"/>
<path d="M3660 2531 c0 -5 -3 -16 -6 -25 -5 -13 2 -16 44 -16 36 0 52 4 56 16
11 30 6 34 -44 34 -27 0 -50 -4 -50 -9z"/>
<path d="M1112 2485 c0 -16 2 -22 5 -12 2 9 2 23 0 30 -3 6 -5 -1 -5 -18z"/>
<path d="M2762 2485 c0 -16 2 -22 5 -12 2 9 2 23 0 30 -3 6 -5 -1 -5 -18z"/>
<path d="M6432 2485 c0 -16 2 -22 5 -12 2 9 2 23 0 30 -3 6 -5 -1 -5 -18z"/>
<path d="M1122 2405 c0 -16 2 -22 5 -12 2 9 2 23 0 30 -3 6 -5 -1 -5 -18z"/>
<path d="M2772 2405 c0 -16 2 -22 5 -12 2 9 2 23 0 30 -3 6 -5 -1 -5 -18z"/>
<path d="M6442 2405 c0 -16 2 -22 5 -12 2 9 2 23 0 30 -3 6 -5 -1 -5 -18z"/>
<path d="M1132 2335 c0 -16 2 -22 5 -12 2 9 2 23 0 30 -3 6 -5 -1 -5 -18z"/>
<path d="M2782 2335 c0 -16 2 -22 5 -12 2 9 2 23 0 30 -3 6 -5 -1 -5 -18z"/>
<path d="M6452 2335 c0 -16 2 -22 5 -12 2 9 2 23 0 30 -3 6 -5 -1 -5 -18z"/>
<path d="M1142 2255 c0 -16 2 -22 5 -12 2 9 2 23 0 30 -3 6 -5 -1 -5 -18z"/>
<path d="M2792 2255 c0 -16 2 -22 5 -12 2 9 2 23 0 30 -3 6 -5 -1 -5 -18z"/>
<path d="M6462 2255 c0 -16 2 -22 5 -12 2 9 2 23 0 30 -3 6 -5 -1 -5 -18z"/>
<path d="M1152 2175 c0 -16 2 -22 5 -12 2 9 2 23 0 30 -3 6 -5 -1 -5 -18z"/>
<path d="M2802 2175 c0 -16 2 -22 5 -12 2 9 2 23 0 30 -3 6 -5 -1 -5 -18z"/>
<path d="M6472 2175 c0 -16 2 -22 5 -12 2 9 2 23 0 30 -3 6 -5 -1 -5 -18z"/>
<path d="M1162 2105 c0 -16 2 -22 5 -12 2 9 2 23 0 30 -3 6 -5 -1 -5 -18z"/>
<path d="M2812 2105 c0 -16 2 -22 5 -12 2 9 2 23 0 30 -3 6 -5 -1 -5 -18z"/>
<path d="M6482 2105 c0 -16 2 -22 5 -12 2 9 2 23 0 30 -3 6 -5 -1 -5 -18z"/>
</g>
</svg>
