<?xml version="1.0" standalone="yes"?>
<svg xmlns="http://www.w3.org/2000/svg" width="1056" height="816">
<path style="fill:#ffffff; stroke:none;" d="M0 0L0 816L1056 816L1056 0L0 0z"/>
<path style="fill:#010101; stroke:none;" d="M131 325L131 485L132 485L138.919 443L159 327C165.623 327 184.551 323.759 189.397 328.603C194.061 333.267 192.709 350.501 193.576 357C197.364 385.424 201 414.327 201 443L202 443C202 403.904 218.329 365.929 220 327L247 327C239.419 367.235 233.511 407.789 225.803 448C223.957 457.629 222.365 467.328 220.753 477C220.151 480.615 220.22 486.693 217.411 489.397C212.381 494.239 193.758 491 187 491L176 377L175 377C174.996 414.996 161.778 453.388 157 491L131 491L131 492L270 492L270 491C250.364 488.1 242.825 471.048 244.09 453C244.837 442.339 247.818 431.542 249.586 421C255.032 388.541 256.18 328.048 301 326C287.879 320.494 264.3 325 250 325L131 325M315 325L315 326C336.123 326.965 345.688 344.802 343.83 364C342.633 376.372 339.629 388.774 337.424 401C331.491 433.907 331.811 485.23 289 491L289 492L481 492L481 491C461.364 488.1 453.824 471.048 455.09 453C455.837 442.339 458.818 431.542 460.586 421C466.032 388.541 467.18 328.048 512 326L493 325L453 325L315 325M527 325L527 326C554.139 328.369 553.722 352.786 551 373L524 375C525.832 368.484 529.139 359.339 525.142 353.044C516.492 339.419 501.27 353.753 498.666 364C492.935 386.551 490.576 410.152 486.197 433C484.541 441.638 480.003 454.536 483.703 462.985C487.595 471.871 501.063 470.281 506.468 463.895C515.724 452.957 514.529 432.414 518 419L504 419L507.742 400.603L519 399L547 399C544.526 430.307 539.362 487.699 499 491L499 492L926 492L926 330L925 330C924.415 343.631 920.584 357.563 918.25 371C913.733 397 909.463 423.061 904.611 449C902.808 458.639 901.208 468.328 899.586 478C899.017 481.393 899.053 486.854 896.411 489.397C891.381 494.239 872.758 491 866 491L855 377L854 377C853.996 414.996 840.778 453.388 836 491L810 491L817.75 444L838 327C844.623 327 863.551 323.759 868.397 328.603C873.061 333.267 871.709 350.501 872.576 357C876.364 385.424 880 414.327 880 443L881 443C881 403.904 897.329 365.929 899 327L926 327L926 325L527 325z"/>
<path style="fill:#ffffff; stroke:none;" d="M370 327L352.576 427L342 491L368 491C374.904 454.355 386 414.324 386 377L387 377L398 491C404.251 491 424.804 494.28 429.012 489.397C431.435 486.584 431.337 480.52 431.92 477C433.578 466.989 435.286 456.966 437.197 447C444.794 407.364 452.914 367.031 458 327L431 327C427.933 365.81 413 403.949 413 443C410.911 435.933 412.523 428.282 411.83 421C409.77 399.354 407.448 377.553 404.576 356C403.813 350.281 404.933 331.62 400.397 328.028C394.997 323.751 376.823 327 370 327M678 327L660.576 427L650 491L676.4 489.972L680.92 471L690 418L721 418L709 491L737 491C741.37 436.088 762.637 382.037 765 327L737 327C735.659 343.964 731.518 361.271 728.389 378C727.577 382.341 727.668 392.33 723.683 394.972C717.516 399.061 701.313 396 694 396L706 327L678 327M787 327L781.081 363L759 491L787 491L807.25 374L815 327L787 327z"/>
<path style="fill:#010101; stroke:none;" d="M300 348.573C289.549 351.567 287.55 363.942 285.803 373C282.216 391.594 279.094 410.331 275.919 429C274.396 437.955 271.139 447.888 271.459 457C271.791 466.431 279.199 470.63 288 468.606C298.836 466.113 300.532 453.11 302.081 444C305.144 425.992 308.253 407.955 311.611 390C313.391 380.484 316.776 369.688 316.657 360C316.544 350.837 308.475 346.144 300 348.573z"/>
<path style="fill:#ffffff; stroke:none;" d="M574 423L654 423L661 402L603 402L581.699 403.028L574 423z"/>
</svg>
