<?xml version="1.0" standalone="yes"?>
<svg xmlns="http://www.w3.org/2000/svg" width="1056" height="816">
<path style="fill:#ffffff; stroke:none;" d="M0 0L0 816L1056 816L1056 0L0 0z"/>
<path style="fill:#010101; stroke:none;" d="M131 325L131 327L162 327L192 440L193 440L192 327L218 327L218 490L187 490L156 374L155 374L157 490L131 490L131 493L136 493L136 498L903 498L903 329L897 329L897 490L866 490L835 374L834 374L836 490L810 490L810 327L841 327L871 440L872 440L871 327L897 327L897 325L500 325L500 326C515.561 328.298 527.134 340.587 529.561 356C530.194 360.02 531.411 368.175 528.258 371.397C523.893 375.855 509.992 373.573 504 375C504.156 367.44 506.105 358.773 501.297 352.055C494.596 342.691 480.543 347.067 477.444 357C474.27 367.169 476 379.454 476 390C476 410.313 475.516 430.693 476.015 451C476.341 464.284 492.558 479.947 502.772 463.906C509.883 452.737 506 431.691 506 419L491 419L491 399L531 399L531 449C530.995 460.709 528.291 472.273 519.907 480.96C504.966 496.438 476.097 495.689 461.015 480.96C448.697 468.931 449 454.011 449 438L449 384C449 372.679 447.822 360.847 451.7 350C456.017 337.925 467.992 327.143 481 326L481 325L290 325L290 326C304.318 328.115 316.147 339.085 320.076 353C323.823 366.266 322 381.342 322 395C322 429.424 332.37 491.771 281 491.999C275.886 492.022 270.931 491.715 266 490.229C228.121 478.818 238 429.295 238 399C238 384.523 235.853 368.1 239.478 354C243.177 339.616 255.224 328.182 270 326C259.02 321.393 239.944 325 228 325L131 325z"/>
<path style="fill:#313131; stroke:none;" d="M270 325L271 326L270 325z"/>
<path style="fill:#565656; stroke:none;" d="M271 325L272 326L271 325z"/>
<path style="fill:#959595; stroke:none;" d="M272 325L272 326L275 326L272 325M285 325L285 326L288 326L285 325z"/>
<path style="fill:#565656; stroke:none;" d="M288 325L289 326L288 325z"/>
<path style="fill:#313131; stroke:none;" d="M289 325L290 326L289 325M481 325L482 326L481 325z"/>
<path style="fill:#565656; stroke:none;" d="M482 325L483 326L482 325z"/>
<path style="fill:#959595; stroke:none;" d="M483 325L483 326L486 326L483 325M495 325L495 326L498 326L495 325z"/>
<path style="fill:#565656; stroke:none;" d="M498 325L499 326L498 325z"/>
<path style="fill:#313131; stroke:none;" d="M499 325L500 326L499 325z"/>
<path style="fill:#565656; stroke:none;" d="M266 326L267 327L266 326z"/>
<path style="fill:#959595; stroke:none;" d="M267 326L268 327L267 326M291.667 326.333L292.333 326.667L291.667 326.333z"/>
<path style="fill:#565656; stroke:none;" d="M293 326L294 327L293 326z"/>
<path style="fill:#313131; stroke:none;" d="M476 326L477 327L476 326z"/>
<path style="fill:#565656; stroke:none;" d="M477 326L478 327L477 326z"/>
<path style="fill:#959595; stroke:none;" d="M478 326L479 327L478 326M502 326L503 327L502 326z"/>
<path style="fill:#565656; stroke:none;" d="M503 326L504 327L503 326M161 327L162 328L161 327z"/>
<path style="fill:#959595; stroke:none;" d="M192 327L192 419L193 419L193 355L192 327z"/>
<path style="fill:#565656; stroke:none;" d="M263 327L264 328L263 327z"/>
<path style="fill:#959595; stroke:none;" d="M264 327L265 328L264 327M295 327L296 328L295 327z"/>
<path style="fill:#565656; stroke:none;" d="M296 327L297 328L296 327z"/>
<path style="fill:#ffffff; stroke:none;" d="M342 327L342 490L367 490L366 373L367 373C370.91 402.037 381.904 430.907 390 459C392.012 465.983 393.823 484.54 399.703 488.972C405.192 493.11 422.201 490 429 490L429 327L404 327L405 444C400.857 436.528 400.601 427.168 398.29 419L381.14 359C379.115 351.855 377.183 332.616 371.272 328.028C365.929 323.88 348.691 327 342 327z"/>
<path style="fill:#565656; stroke:none;" d="M372 327L373 328L372 327z"/>
<path style="fill:#959595; stroke:none;" d="M403 327L403 419L404 419L404 355L403 327z"/>
<path style="fill:#313131; stroke:none;" d="M473 327L474 328L473 327z"/>
<path style="fill:#959595; stroke:none;" d="M474 327L475 328L474 327M505 327L506 328L505 327z"/>
<path style="fill:#565656; stroke:none;" d="M506 327L507 328L506 327z"/>
<path style="fill:#959595; stroke:none;" d="M650 327L650 490L651 490L651 376C651 362.224 655.306 339.645 650 327z"/>
<path style="fill:#ffffff; stroke:none;" d="M651 327L651 490L677 490L677 418L710 418L710 490L736 490L736 327L710 327L710 397L677 397L677 327L651 327z"/>
<path style="fill:#959595; stroke:none;" d="M709 327L709 397L710 397L710 349L709 327M759 327L759 490L760 490L760 376C760 362.224 764.306 339.645 759 327z"/>
<path style="fill:#ffffff; stroke:none;" d="M760 327L760 490L786 490L786 327L760 327z"/>
<path style="fill:#565656; stroke:none;" d="M840 327L841 328L840 327z"/>
<path style="fill:#959595; stroke:none;" d="M871 327L871 419L872 419L872 355L871 327M161 328L162 329L161 328z"/>
<path style="fill:#565656; stroke:none;" d="M260 328L261 329L260 328z"/>
<path style="fill:#959595; stroke:none;" d="M261 328L262 329L261 328M298 328L299 329L298 328z"/>
<path style="fill:#313131; stroke:none;" d="M299 328L300 329L299 328z"/>
<path style="fill:#959595; stroke:none;" d="M372 328L373 329L372 328z"/>
<path style="fill:#565656; stroke:none;" d="M471 328L472 329L471 328z"/>
<path style="fill:#959595; stroke:none;" d="M472 328L473 329L472 328M508 328L509 329L508 328z"/>
<path style="fill:#313131; stroke:none;" d="M509 328L510 329L509 328z"/>
<path style="fill:#959595; stroke:none;" d="M840 328L841 329L840 328z"/>
<path style="fill:#565656; stroke:none;" d="M258 329L259 330L258 329z"/>
<path style="fill:#959595; stroke:none;" d="M300 329L301 330L300 329z"/>
<path style="fill:#313131; stroke:none;" d="M301 329L302 330L301 329z"/>
<path style="fill:#565656; stroke:none;" d="M469 329L470 330L469 329z"/>
<path style="fill:#959595; stroke:none;" d="M510 329L511 330L510 329z"/>
<path style="fill:#313131; stroke:none;" d="M511 329L512 330L511 329M162 330L163 331L162 330M256 330L257 331L256 330z"/>
<path style="fill:#959595; stroke:none;" d="M302 330L303 331L302 330z"/>
<path style="fill:#313131; stroke:none;" d="M303 330L304 331L303 330M373 330L374 331L373 330M467 330L468 331L467 330z"/>
<path style="fill:#959595; stroke:none;" d="M512 330L513 331L512 330z"/>
<path style="fill:#313131; stroke:none;" d="M513 330L514 331L513 330M841 330L842 331L841 330z"/>
<path style="fill:#959595; stroke:none;" d="M162.333 331.667L162.667 332.333L162.333 331.667M255 331L256 332L255 331M304 331L305 332L304 331M373.333 331.667L373.667 332.333L373.333 331.667M466 331L467 332L466 331M514 331L515 332L514 331M841.333 331.667L841.667 332.333L841.333 331.667z"/>
<path style="fill:#565656; stroke:none;" d="M253 332L254 333L253 332z"/>
<path style="fill:#313131; stroke:none;" d="M306 332L307 333L306 332z"/>
<path style="fill:#565656; stroke:none;" d="M464 332L465 333L464 332z"/>
<path style="fill:#313131; stroke:none;" d="M516 332L517 333L516 332z"/>
<path style="fill:#959595; stroke:none;" d="M252 333L253 334L252 333z"/>
<path style="fill:#565656; stroke:none;" d="M307 333L308 334L307 333z"/>
<path style="fill:#959595; stroke:none;" d="M463 333L464 334L463 333z"/>
<path style="fill:#565656; stroke:none;" d="M517 333L518 334L517 333z"/>
<path style="fill:#313131; stroke:none;" d="M163 334L164 335L163 334z"/>
<path style="fill:#959595; stroke:none;" d="M251 334L252 335L251 334M308 334L309 335L308 334z"/>
<path style="fill:#313131; stroke:none;" d="M374 334L375 335L374 334z"/>
<path style="fill:#959595; stroke:none;" d="M462 334L463 335L462 334z"/>
<path style="fill:#565656; stroke:none;" d="M518 334L519 335L518 334z"/>
<path style="fill:#313131; stroke:none;" d="M842 334L843 335L842 334z"/>
<path style="fill:#959595; stroke:none;" d="M163 335L164 336L163 335M250 335L251 336L250 335M309 335L310 336L309 335M374 335L375 336L374 335M461 335L462 336L461 335M519 335L520 336L519 335M842 335L843 336L842 335M249 336L250 337L249 336M310 336L311 337L310 336M460 336L461 337L460 336z"/>
<path style="fill:#565656; stroke:none;" d="M520 336L521 337L520 336z"/>
<path style="fill:#959595; stroke:none;" d="M248 337L249 338L248 337M311 337L312 338L311 337M459 337L460 338L459 337z"/>
<path style="fill:#313131; stroke:none;" d="M521 337L522 338L521 337z"/>
<path style="fill:#565656; stroke:none;" d="M164 338L165 339L164 338z"/>
<path style="fill:#959595; stroke:none;" d="M247 338L248 339L247 338z"/>
<path style="fill:#565656; stroke:none;" d="M312 338L313 339L312 338M375 338L376 339L375 338z"/>
<path style="fill:#959595; stroke:none;" d="M458 338L459 339L458 338z"/>
<path style="fill:#565656; stroke:none;" d="M843 338L844 339L843 338z"/>
<path style="fill:#959595; stroke:none;" d="M164 339L165 340L164 339M246 339L247 340L246 339z"/>
<path style="fill:#313131; stroke:none;" d="M313 339L314 340L313 339z"/>
<path style="fill:#959595; stroke:none;" d="M375 339L376 340L375 339M457 339L458 340L457 339M843 339L844 340L843 339z"/>
<path style="fill:#313131; stroke:none;" d="M245 340L246 341L245 340M456 340L457 341L456 340z"/>
<path style="fill:#959595; stroke:none;" d="M523 340L524 341L523 340z"/>
<path style="fill:#313131; stroke:none;" d="M165 341L166 342L165 341z"/>
<path style="fill:#959595; stroke:none;" d="M314 341L315 342L314 341z"/>
<path style="fill:#313131; stroke:none;" d="M376 341L377 342L376 341M524 341L525 342L524 341M844 341L845 342L844 341z"/>
<path style="fill:#959595; stroke:none;" d="M165 342L166 343L165 342M244 342L245 343L244 342z"/>
<path style="fill:#565656; stroke:none;" d="M315 342L316 343L315 342z"/>
<path style="fill:#959595; stroke:none;" d="M376 342L377 343L376 342M455 342L456 343L455 342M844 342L845 343L844 342z"/>
<path style="fill:#313131; stroke:none;" d="M243 343L244 344L243 343M454 343L455 344L454 343z"/>
<path style="fill:#565656; stroke:none;" d="M525 343L526 344L525 343z"/>
<path style="fill:#959595; stroke:none;" d="M243 344L244 345L243 344M316 344L317 345L316 344M454 344L455 345L454 344z"/>
<path style="fill:#565656; stroke:none;" d="M166 345L167 346L166 345z"/>
<path style="fill:#313131; stroke:none;" d="M242 345L243 346L242 345z"/>
<path style="fill:#565656; stroke:none;" d="M377 345L378 346L377 345z"/>
<path style="fill:#313131; stroke:none;" d="M453 345L454 346L453 345z"/>
<path style="fill:#565656; stroke:none;" d="M526 345L527 346L526 345M845 345L846 346L845 345z"/>
<path style="fill:#959595; stroke:none;" d="M166 346L167 347L166 346M242 346L243 347L242 346M277 346L277 347L282 347L277 346M317 346L318 347L317 346M377 346L378 347L377 346M453 346L454 347L453 346M488 346L488 347L493 347L488 346M845 346L846 347L845 346z"/>
<path style="fill:#313131; stroke:none;" d="M241 347L242 348L241 347z"/>
<path style="fill:#565656; stroke:none;" d="M274 347L275 348L274 347z"/>
<path style="fill:#010101; stroke:none;" d="M275.001 347.653C263.652 351.225 265 365.607 265 375C265 400.802 263.284 427.266 265.09 453C265.82 463.414 272.44 472.472 283.999 469.442C295.375 466.461 295 452.389 295 443C295 417.36 297.301 390.512 294.83 365C293.783 354.181 287.659 343.668 275.001 347.653z"/>
<path style="fill:#313131; stroke:none;" d="M284 347L285 348L284 347z"/>
<path style="fill:#959595; stroke:none;" d="M285 347L286 348L285 347z"/>
<path style="fill:#313131; stroke:none;" d="M452 347L453 348L452 347z"/>
<path style="fill:#565656; stroke:none;" d="M485 347L486 348L485 347z"/>
<path style="fill:#313131; stroke:none;" d="M495 347L496 348L495 347z"/>
<path style="fill:#959595; stroke:none;" d="M496 347L497 348L496 347z"/>
<path style="fill:#313131; stroke:none;" d="M527 347L528 348L527 347M167 348L168 349L167 348z"/>
<path style="fill:#959595; stroke:none;" d="M241 348L242 349L241 348z"/>
<path style="fill:#313131; stroke:none;" d="M272 348L273 349L272 348z"/>
<path style="fill:#565656; stroke:none;" d="M287 348L288 349L287 348M318 348L319 349L318 348z"/>
<path style="fill:#313131; stroke:none;" d="M378 348L379 349L378 348z"/>
<path style="fill:#959595; stroke:none;" d="M452 348L453 349L452 348z"/>
<path style="fill:#313131; stroke:none;" d="M483 348L484 349L483 348z"/>
<path style="fill:#959595; stroke:none;" d="M498 348L499 349L498 348M527 348L528 349L527 348z"/>
<path style="fill:#313131; stroke:none;" d="M846 348L847 349L846 348z"/>
<path style="fill:#959595; stroke:none;" d="M167 349L168 350L167 349M270 349L271 350L270 349M378 349L379 350L378 349M481 349L482 350L481 349z"/>
<path style="fill:#565656; stroke:none;" d="M499 349L500 350L499 349z"/>
<path style="fill:#959595; stroke:none;" d="M846 349L847 350L846 349z"/>
<path style="fill:#565656; stroke:none;" d="M240 350L241 351L240 350z"/>
<path style="fill:#959595; stroke:none;" d="M269 350L270 351L269 350M290 350L291 351L290 350z"/>
<path style="fill:#313131; stroke:none;" d="M319 350L320 351L319 350z"/>
<path style="fill:#565656; stroke:none;" d="M451 350L452 351L451 350z"/>
<path style="fill:#959595; stroke:none;" d="M480 350L481 351L480 350z"/>
<path style="fill:#565656; stroke:none;" d="M500 350L501 351L500 350z"/>
<path style="fill:#313131; stroke:none;" d="M528 350L529 351L528 350z"/>
<path style="fill:#959595; stroke:none;" d="M240 351L241 352L240 351M268 351L269 352L268 351z"/>
<path style="fill:#565656; stroke:none;" d="M319 351L320 352L319 351z"/>
<path style="fill:#959595; stroke:none;" d="M451 351L452 352L451 351M479 351L480 352L479 351M501 351L502 352L501 351z"/>
<path style="fill:#565656; stroke:none;" d="M528 351L529 352L528 351M168 352L169 353L168 352M379 352L380 353L379 352z"/>
<path style="fill:#959595; stroke:none;" d="M528 352L529 353L528 352z"/>
<path style="fill:#565656; stroke:none;" d="M847 352L848 353L847 352z"/>
<path style="fill:#959595; stroke:none;" d="M168 353L169 354L168 353z"/>
<path style="fill:#313131; stroke:none;" d="M239 353L240 354L239 353z"/>
<path style="fill:#565656; stroke:none;" d="M267 353L268 354L267 353z"/>
<path style="fill:#959595; stroke:none;" d="M292 353L293 354L292 353M379 353L380 354L379 353z"/>
<path style="fill:#313131; stroke:none;" d="M450 353L451 354L450 353z"/>
<path style="fill:#565656; stroke:none;" d="M478 353L479 354L478 353M502 353L503 354L502 353z"/>
<path style="fill:#959595; stroke:none;" d="M847 353L848 354L847 353z"/>
<path style="fill:#565656; stroke:none;" d="M239 354L240 355L239 354z"/>
<path style="fill:#313131; stroke:none;" d="M292 354L293 355L292 354M320 354L321 355L320 354z"/>
<path style="fill:#565656; stroke:none;" d="M450 354L451 355L450 354z"/>
<path style="fill:#313131; stroke:none;" d="M169 355L170 356L169 355z"/>
<path style="fill:#959595; stroke:none;" d="M239 355L240 356L239 355z"/>
<path style="fill:#565656; stroke:none;" d="M266 355L267 356L266 355z"/>
<path style="fill:#959595; stroke:none;" d="M293 355L294 356L293 355M320.333 355.667L320.667 356.333L320.333 355.667z"/>
<path style="fill:#313131; stroke:none;" d="M380 355L381 356L380 355z"/>
<path style="fill:#959595; stroke:none;" d="M450 355L451 356L450 355M477 355L478 356L477 355M503 355L504 356L503 355z"/>
<path style="fill:#313131; stroke:none;" d="M529 355L530 356L529 355M848 355L849 356L848 355z"/>
<path style="fill:#959595; stroke:none;" d="M169 356L170 357L169 356z"/>
<path style="fill:#565656; stroke:none;" d="M293 356L294 357L293 356z"/>
<path style="fill:#959595; stroke:none;" d="M380 356L381 357L380 356z"/>
<path style="fill:#313131; stroke:none;" d="M477 356L478 357L477 356M503 356L504 357L503 356z"/>
<path style="fill:#565656; stroke:none;" d="M529 356L530 357L529 356z"/>
<path style="fill:#959595; stroke:none;" d="M848 356L849 357L848 356M529 357L529 361L530 361L529 357z"/>
<path style="fill:#313131; stroke:none;" d="M238 358L239 359L238 358z"/>
<path style="fill:#959595; stroke:none;" d="M265 358L266 359L265 358M294.333 358.667L294.667 359.333L294.333 358.667z"/>
<path style="fill:#313131; stroke:none;" d="M449 358L450 359L449 358z"/>
<path style="fill:#959595; stroke:none;" d="M476 358L477 359L476 358M504.333 358.667L504.667 359.333L504.333 358.667z"/>
<path style="fill:#565656; stroke:none;" d="M170 359L171 360L170 359M238.333 359.667L238.667 360.333L238.333 359.667M265 359L266 360L265 359z"/>
<path style="fill:#313131; stroke:none;" d="M321.333 359.667L321.667 360.333L321.333 359.667z"/>
<path style="fill:#565656; stroke:none;" d="M381 359L382 360L381 359M449.333 359.667L449.667 360.333L449.333 359.667M476 359L477 360L476 359M849 359L850 360L849 359z"/>
<path style="fill:#959595; stroke:none;" d="M170 360L171 361L170 360z"/>
<path style="fill:#313131; stroke:none;" d="M265 360L266 361L265 360z"/>
<path style="fill:#565656; stroke:none;" d="M294 360L295 361L294 360z"/>
<path style="fill:#959595; stroke:none;" d="M381 360L382 361L381 360z"/>
<path style="fill:#313131; stroke:none;" d="M476 360L477 361L476 360z"/>
<path style="fill:#565656; stroke:none;" d="M504 360L505 361L504 360z"/>
<path style="fill:#959595; stroke:none;" d="M849 360L850 361L849 360M238 361L238 456L239 456L239 390L238 361z"/>
<path style="fill:#313131; stroke:none;" d="M294.333 361.667L294.667 362.333L294.333 361.667z"/>
<path style="fill:#565656; stroke:none;" d="M321.333 361.667L321.667 362.333L321.333 361.667z"/>
<path style="fill:#959595; stroke:none;" d="M449 361L449 456L450 456L450 390L449 361z"/>
<path style="fill:#313131; stroke:none;" d="M504.333 361.667L504.667 362.333L504.333 361.667M171 362L172 363L171 362M382 362L383 363L382 362M850 362L851 363L850 362z"/>
<path style="fill:#959595; stroke:none;" d="M171 363L172 364L171 363M321 363L321 454L322 454L322 391L321 363M382 363L383 364L382 363M850 363L851 364L850 363M529 364L529 368L530 368L529 364z"/>
<path style="fill:#565656; stroke:none;" d="M172 366L173 367L172 366M383 366L384 367L383 366M851 366L852 367L851 366z"/>
<path style="fill:#959595; stroke:none;" d="M172 367L173 368L172 367M383 367L384 368L383 367M851 367L852 368L851 367z"/>
<path style="fill:#313131; stroke:none;" d="M504.333 368.667L504.667 369.333L504.333 368.667z"/>
<path style="fill:#565656; stroke:none;" d="M529 368L530 369L529 368z"/>
<path style="fill:#313131; stroke:none;" d="M173 369L174 370L173 369M384 369L385 370L384 369M529.333 369.667L529.667 370.333L529.333 369.667M852 369L853 370L852 369z"/>
<path style="fill:#959595; stroke:none;" d="M173 370L174 371L173 370M384 370L385 371L384 370z"/>
<path style="fill:#565656; stroke:none;" d="M504.333 370.667L504.667 371.333L504.333 370.667z"/>
<path style="fill:#959595; stroke:none;" d="M852 370L853 371L852 370M504.333 372.667L504.667 373.333L504.333 372.667M524 372L524 373L527 373L524 372z"/>
<path style="fill:#565656; stroke:none;" d="M527.667 372.333L528.333 372.667L527.667 372.333z"/>
<path style="fill:#959595; stroke:none;" d="M155 373L156 374L155 373z"/>
<path style="fill:#565656; stroke:none;" d="M174 373L175 374L174 373z"/>
<path style="fill:#959595; stroke:none;" d="M366 373L367 374L366 373z"/>
<path style="fill:#565656; stroke:none;" d="M385 373L386 374L385 373z"/>
<path style="fill:#959595; stroke:none;" d="M510 373L510 374L513 374L510 373z"/>
<path style="fill:#565656; stroke:none;" d="M513.667 373.333L514.333 373.667L513.667 373.333z"/>
<path style="fill:#313131; stroke:none;" d="M515 373L515 374L518 374L515 373z"/>
<path style="fill:#959595; stroke:none;" d="M834 373L835 374L834 373z"/>
<path style="fill:#565656; stroke:none;" d="M853 373L854 374L853 373z"/>
<path style="fill:#959595; stroke:none;" d="M174 374L175 375L174 374z"/>
<path style="fill:#010101; stroke:none;" d="M366 374L366 378L367 378L366 374z"/>
<path style="fill:#959595; stroke:none;" d="M385 374L386 375L385 374z"/>
<path style="fill:#313131; stroke:none;" d="M504.667 374.333L505.333 374.667L504.667 374.333z"/>
<path style="fill:#959595; stroke:none;" d="M853 374L854 375L853 374M156 376L157 377L156 376z"/>
<path style="fill:#313131; stroke:none;" d="M175 376L176 377L175 376z"/>
<path style="fill:#959595; stroke:none;" d="M367 376L368 377L367 376z"/>
<path style="fill:#313131; stroke:none;" d="M386 376L387 377L386 376z"/>
<path style="fill:#959595; stroke:none;" d="M835 376L836 377L835 376z"/>
<path style="fill:#313131; stroke:none;" d="M854 376L855 377L854 376M156 377L157 378L156 377z"/>
<path style="fill:#959595; stroke:none;" d="M175 377L176 378L175 377z"/>
<path style="fill:#313131; stroke:none;" d="M367 377L368 378L367 377z"/>
<path style="fill:#959595; stroke:none;" d="M386 377L387 378L386 377z"/>
<path style="fill:#313131; stroke:none;" d="M835 377L836 378L835 377z"/>
<path style="fill:#959595; stroke:none;" d="M854 377L855 378L854 377z"/>
<path style="fill:#313131; stroke:none;" d="M155.333 378.667L155.667 379.333L155.333 378.667M366.333 378.667L366.667 379.333L366.333 378.667M834.333 378.667L834.667 379.333L834.333 378.667z"/>
<path style="fill:#565656; stroke:none;" d="M155.333 380.667L155.667 381.333L155.333 380.667z"/>
<path style="fill:#959595; stroke:none;" d="M157 380L158 381L157 380z"/>
<path style="fill:#565656; stroke:none;" d="M176 380L177 381L176 380M366.333 380.667L366.667 381.333L366.333 380.667z"/>
<path style="fill:#959595; stroke:none;" d="M368 380L369 381L368 380z"/>
<path style="fill:#565656; stroke:none;" d="M387 380L388 381L387 380M834.333 380.667L834.667 381.333L834.333 380.667z"/>
<path style="fill:#959595; stroke:none;" d="M836 380L837 381L836 380z"/>
<path style="fill:#565656; stroke:none;" d="M855 380L856 381L855 380M157 381L158 382L157 381z"/>
<path style="fill:#959595; stroke:none;" d="M176 381L177 382L176 381z"/>
<path style="fill:#565656; stroke:none;" d="M368 381L369 382L368 381z"/>
<path style="fill:#959595; stroke:none;" d="M387 381L388 382L387 381z"/>
<path style="fill:#565656; stroke:none;" d="M836 381L837 382L836 381z"/>
<path style="fill:#959595; stroke:none;" d="M855 381L856 382L855 381M155 382L155 385L156 385L155 382z"/>
<path style="fill:#313131; stroke:none;" d="M157 382L158 383L157 382z"/>
<path style="fill:#959595; stroke:none;" d="M366 382L366 385L367 385L366 382z"/>
<path style="fill:#313131; stroke:none;" d="M368 382L369 383L368 382z"/>
<path style="fill:#959595; stroke:none;" d="M834 382L834 385L835 385L834 382z"/>
<path style="fill:#313131; stroke:none;" d="M836 382L837 383L836 382M177 383L178 384L177 383M388 383L389 384L388 383M856 383L857 384L856 383z"/>
<path style="fill:#959595; stroke:none;" d="M177 384L178 385L177 384M388 384L389 385L388 384M856 384L857 385L856 384M158 385L159 386L158 385M369 385L370 386L369 385M837 385L838 386L837 385z"/>
<path style="fill:#565656; stroke:none;" d="M158 386L159 387L158 386M369 386L370 387L369 386M837 386L838 387L837 386z"/>
<path style="fill:#313131; stroke:none;" d="M158 387L159 388L158 387z"/>
<path style="fill:#565656; stroke:none;" d="M178 387L179 388L178 387z"/>
<path style="fill:#313131; stroke:none;" d="M369 387L370 388L369 387z"/>
<path style="fill:#565656; stroke:none;" d="M389 387L390 388L389 387z"/>
<path style="fill:#313131; stroke:none;" d="M837 387L838 388L837 387z"/>
<path style="fill:#565656; stroke:none;" d="M857 387L858 388L857 387z"/>
<path style="fill:#959595; stroke:none;" d="M178 388L179 389L178 388M389 388L390 389L389 388M857 388L858 389L857 388M159 390L160 391L159 390z"/>
<path style="fill:#313131; stroke:none;" d="M179 390L180 391L179 390z"/>
<path style="fill:#959595; stroke:none;" d="M370 390L371 391L370 390z"/>
<path style="fill:#313131; stroke:none;" d="M390 390L391 391L390 390z"/>
<path style="fill:#959595; stroke:none;" d="M838 390L839 391L838 390z"/>
<path style="fill:#313131; stroke:none;" d="M858 390L859 391L858 390M159 391L160 392L159 391z"/>
<path style="fill:#959595; stroke:none;" d="M179 391L180 392L179 391z"/>
<path style="fill:#313131; stroke:none;" d="M370 391L371 392L370 391z"/>
<path style="fill:#959595; stroke:none;" d="M390 391L391 392L390 391z"/>
<path style="fill:#313131; stroke:none;" d="M838 391L839 392L838 391z"/>
<path style="fill:#959595; stroke:none;" d="M858 391L859 392L858 391z"/>
<path style="fill:#313131; stroke:none;" d="M156 393L156 403L157 403L156 393M367 393L367 403L368 403L367 393M835 393L835 403L836 403L835 393z"/>
<path style="fill:#959595; stroke:none;" d="M160 394L161 395L160 394z"/>
<path style="fill:#565656; stroke:none;" d="M180 394L181 395L180 394z"/>
<path style="fill:#959595; stroke:none;" d="M371 394L372 395L371 394z"/>
<path style="fill:#565656; stroke:none;" d="M391 394L392 395L391 394z"/>
<path style="fill:#959595; stroke:none;" d="M839 394L840 395L839 394z"/>
<path style="fill:#565656; stroke:none;" d="M859 394L860 395L859 394z"/>
<path style="fill:#313131; stroke:none;" d="M160 395L161 396L160 395z"/>
<path style="fill:#959595; stroke:none;" d="M180 395L181 396L180 395z"/>
<path style="fill:#313131; stroke:none;" d="M371 395L372 396L371 395z"/>
<path style="fill:#959595; stroke:none;" d="M391 395L392 396L391 395z"/>
<path style="fill:#313131; stroke:none;" d="M839 395L840 396L839 395z"/>
<path style="fill:#959595; stroke:none;" d="M859 395L860 396L859 395M161 397L162 398L161 397z"/>
<path style="fill:#313131; stroke:none;" d="M181 397L182 398L181 397z"/>
<path style="fill:#959595; stroke:none;" d="M372 397L373 398L372 397z"/>
<path style="fill:#313131; stroke:none;" d="M392 397L393 398L392 397z"/>
<path style="fill:#959595; stroke:none;" d="M840 397L841 398L840 397z"/>
<path style="fill:#313131; stroke:none;" d="M860 397L861 398L860 397z"/>
<path style="fill:#565656; stroke:none;" d="M161 398L162 399L161 398z"/>
<path style="fill:#959595; stroke:none;" d="M181 398L182 399L181 398z"/>
<path style="fill:#565656; stroke:none;" d="M372 398L373 399L372 398z"/>
<path style="fill:#959595; stroke:none;" d="M392 398L393 399L392 398z"/>
<path style="fill:#565656; stroke:none;" d="M840 398L841 399L840 398z"/>
<path style="fill:#959595; stroke:none;" d="M860 398L861 399L860 398z"/>
<path style="fill:#565656; stroke:none;" d="M491 399L491 419L492 419L491 399z"/>
<path style="fill:#959595; stroke:none;" d="M492 399L492 400L531 400C520.726 395.689 503.172 399 492 399M162 401L163 402L162 401z"/>
<path style="fill:#565656; stroke:none;" d="M182 401L183 402L182 401z"/>
<path style="fill:#959595; stroke:none;" d="M373 401L374 402L373 401z"/>
<path style="fill:#565656; stroke:none;" d="M393 401L394 402L393 401z"/>
<path style="fill:#959595; stroke:none;" d="M841 401L842 402L841 401z"/>
<path style="fill:#565656; stroke:none;" d="M861 401L862 402L861 401M162 402L163 403L162 402z"/>
<path style="fill:#959595; stroke:none;" d="M182 402L183 403L182 402z"/>
<path style="fill:#565656; stroke:none;" d="M373 402L374 403L373 402z"/>
<path style="fill:#959595; stroke:none;" d="M393 402L394 403L393 402z"/>
<path style="fill:#313131; stroke:none;" d="M551 402L551 403L630 403L605 402L551 402z"/>
<path style="fill:#565656; stroke:none;" d="M841 402L842 403L841 402z"/>
<path style="fill:#959595; stroke:none;" d="M861 402L862 403L861 402z"/>
<path style="fill:#565656; stroke:none;" d="M156 403L156 490L157 490L157 430L156 403M367 403L367 490L368 490L368 430L367 403z"/>
<path style="fill:#ffffff; stroke:none;" d="M551 403L551 423L629 423L629 403L551 403z"/>
<path style="fill:#959595; stroke:none;" d="M629 403L629 407L630 407L629 403z"/>
<path style="fill:#565656; stroke:none;" d="M835 403L835 490L836 490L836 430L835 403z"/>
<path style="fill:#313131; stroke:none;" d="M183 404L184 405L183 404M394 404L395 405L394 404M862 404L863 405L862 404z"/>
<path style="fill:#959595; stroke:none;" d="M163 405L164 406L163 405M183 405L184 406L183 405M374 405L375 406L374 405M394 405L395 406L394 405M842 405L843 406L842 405M862 405L863 406L862 405z"/>
<path style="fill:#313131; stroke:none;" d="M163 406L164 407L163 406M374 406L375 407L374 406M842 406L843 407L842 406z"/>
<path style="fill:#565656; stroke:none;" d="M629 407L629 423L630 423L629 407z"/>
<path style="fill:#959595; stroke:none;" d="M164 408L165 409L164 408z"/>
<path style="fill:#565656; stroke:none;" d="M184 408L185 409L184 408z"/>
<path style="fill:#959595; stroke:none;" d="M375 408L376 409L375 408z"/>
<path style="fill:#565656; stroke:none;" d="M395 408L396 409L395 408z"/>
<path style="fill:#959595; stroke:none;" d="M843 408L844 409L843 408z"/>
<path style="fill:#565656; stroke:none;" d="M863 408L864 409L863 408M164 409L165 410L164 409z"/>
<path style="fill:#959595; stroke:none;" d="M184 409L185 410L184 409z"/>
<path style="fill:#565656; stroke:none;" d="M375 409L376 410L375 409z"/>
<path style="fill:#959595; stroke:none;" d="M395 409L396 410L395 409z"/>
<path style="fill:#565656; stroke:none;" d="M843 409L844 410L843 409z"/>
<path style="fill:#959595; stroke:none;" d="M863 409L864 410L863 409z"/>
<path style="fill:#313131; stroke:none;" d="M185 411L186 412L185 411M396 411L397 412L396 411M864 411L865 412L864 411z"/>
<path style="fill:#959595; stroke:none;" d="M165 412L166 413L165 412M185 412L186 413L185 412M376 412L377 413L376 412M396 412L397 413L396 412M844 412L845 413L844 412M864 412L865 413L864 412z"/>
<path style="fill:#313131; stroke:none;" d="M165 413L166 414L165 413M376 413L377 414L376 413M844 413L845 414L844 413z"/>
<path style="fill:#959595; stroke:none;" d="M166 415L167 416L166 415z"/>
<path style="fill:#565656; stroke:none;" d="M186 415L187 416L186 415z"/>
<path style="fill:#959595; stroke:none;" d="M377 415L378 416L377 415z"/>
<path style="fill:#565656; stroke:none;" d="M397 415L398 416L397 415z"/>
<path style="fill:#959595; stroke:none;" d="M845 415L846 416L845 415z"/>
<path style="fill:#565656; stroke:none;" d="M865 415L866 416L865 415M166 416L167 417L166 416z"/>
<path style="fill:#959595; stroke:none;" d="M186 416L187 417L186 416z"/>
<path style="fill:#565656; stroke:none;" d="M377 416L378 417L377 416z"/>
<path style="fill:#959595; stroke:none;" d="M397 416L398 417L397 416z"/>
<path style="fill:#565656; stroke:none;" d="M845 416L846 417L845 416z"/>
<path style="fill:#959595; stroke:none;" d="M865 416L866 417L865 416M167.333 418.667L167.667 419.333L167.333 418.667z"/>
<path style="fill:#313131; stroke:none;" d="M187 418L188 419L187 418z"/>
<path style="fill:#959595; stroke:none;" d="M378.333 418.667L378.667 419.333L378.333 418.667z"/>
<path style="fill:#313131; stroke:none;" d="M398 418L399 419L398 418z"/>
<path style="fill:#959595; stroke:none;" d="M709 418L709 490L710 490L710 441L709 418M846.333 418.667L846.667 419.333L846.333 418.667z"/>
<path style="fill:#313131; stroke:none;" d="M866 418L867 419L866 418z"/>
<path style="fill:#565656; stroke:none;" d="M187 419L188 420L187 419M192 419L192 422L193 422L192 419M398 419L399 420L398 419M403 419L403 422L404 422L403 419M866 419L867 420L866 419M871 419L871 422L872 422L871 419z"/>
<path style="fill:#313131; stroke:none;" d="M167 420L168 421L167 420M378 420L379 421L378 420M846 420L847 421L846 420z"/>
<path style="fill:#959595; stroke:none;" d="M168 422L169 423L168 422z"/>
<path style="fill:#565656; stroke:none;" d="M188 422L189 423L188 422z"/>
<path style="fill:#313131; stroke:none;" d="M192 422L192 429L193 429L192 422z"/>
<path style="fill:#959595; stroke:none;" d="M379 422L380 423L379 422z"/>
<path style="fill:#565656; stroke:none;" d="M399 422L400 423L399 422z"/>
<path style="fill:#313131; stroke:none;" d="M403 422L403 429L404 429L403 422z"/>
<path style="fill:#959595; stroke:none;" d="M847 422L848 423L847 422z"/>
<path style="fill:#565656; stroke:none;" d="M867 422L868 423L867 422z"/>
<path style="fill:#313131; stroke:none;" d="M871 422L871 429L872 429L871 422z"/>
<path style="fill:#565656; stroke:none;" d="M168 423L169 424L168 423z"/>
<path style="fill:#959595; stroke:none;" d="M188 423L189 424L188 423z"/>
<path style="fill:#565656; stroke:none;" d="M379 423L380 424L379 423z"/>
<path style="fill:#959595; stroke:none;" d="M399 423L400 424L399 423z"/>
<path style="fill:#565656; stroke:none;" d="M847 423L848 424L847 423z"/>
<path style="fill:#959595; stroke:none;" d="M867 423L868 424L867 423M169.333 425.667L169.667 426.333L169.333 425.667M380.333 425.667L380.667 426.333L380.333 425.667M848.333 425.667L848.667 426.333L848.333 425.667z"/>
<path style="fill:#313131; stroke:none;" d="M189 426L190 427L189 426M400 426L401 427L400 426M868 426L869 427L868 426M169 427L170 428L169 427z"/>
<path style="fill:#565656; stroke:none;" d="M189 427L190 428L189 427z"/>
<path style="fill:#313131; stroke:none;" d="M380 427L381 428L380 427z"/>
<path style="fill:#565656; stroke:none;" d="M400 427L401 428L400 427z"/>
<path style="fill:#313131; stroke:none;" d="M848 427L849 428L848 427z"/>
<path style="fill:#565656; stroke:none;" d="M868 427L869 428L868 427z"/>
<path style="fill:#959595; stroke:none;" d="M189 428L190 429L189 428M400 428L401 429L400 428M868 428L869 429L868 428M170 429L171 430L170 429M381 429L382 430L381 429M849 429L850 430L849 429z"/>
<path style="fill:#565656; stroke:none;" d="M170 430L171 431L170 430M381 430L382 431L381 430M849 430L850 431L849 430z"/>
<path style="fill:#313131; stroke:none;" d="M190 431L191 432L190 431M401 431L402 432L401 431M869 431L870 432L869 431z"/>
<path style="fill:#959595; stroke:none;" d="M171.333 432.667L171.667 433.333L171.333 432.667z"/>
<path style="fill:#565656; stroke:none;" d="M190 432L191 433L190 432z"/>
<path style="fill:#959595; stroke:none;" d="M382.333 432.667L382.667 433.333L382.333 432.667z"/>
<path style="fill:#565656; stroke:none;" d="M401 432L402 433L401 432z"/>
<path style="fill:#959595; stroke:none;" d="M850.333 432.667L850.667 433.333L850.333 432.667z"/>
<path style="fill:#565656; stroke:none;" d="M869 432L870 433L869 432z"/>
<path style="fill:#959595; stroke:none;" d="M190 433L191 434L190 433M401 433L402 434L401 433M869 433L870 434L869 433z"/>
<path style="fill:#313131; stroke:none;" d="M171 434L172 435L171 434M382 434L383 435L382 434M850 434L851 435L850 434z"/>
<path style="fill:#959595; stroke:none;" d="M172 436L173 437L172 436z"/>
<path style="fill:#565656; stroke:none;" d="M191 436L192 437L191 436z"/>
<path style="fill:#959595; stroke:none;" d="M193.333 436.667L193.667 437.333L193.333 436.667M383 436L384 437L383 436z"/>
<path style="fill:#565656; stroke:none;" d="M402 436L403 437L402 436z"/>
<path style="fill:#959595; stroke:none;" d="M404.333 436.667L404.667 437.333L404.333 436.667M851 436L852 437L851 436z"/>
<path style="fill:#565656; stroke:none;" d="M870 436L871 437L870 436z"/>
<path style="fill:#959595; stroke:none;" d="M872.333 436.667L872.667 437.333L872.333 436.667z"/>
<path style="fill:#565656; stroke:none;" d="M172 437L173 438L172 437z"/>
<path style="fill:#959595; stroke:none;" d="M191 437L192 438L191 437z"/>
<path style="fill:#565656; stroke:none;" d="M383 437L384 438L383 437z"/>
<path style="fill:#959595; stroke:none;" d="M402 437L403 438L402 437z"/>
<path style="fill:#565656; stroke:none;" d="M851 437L852 438L851 437z"/>
<path style="fill:#959595; stroke:none;" d="M870 437L871 438L870 437z"/>
<path style="fill:#565656; stroke:none;" d="M193.333 438.667L193.667 439.333L193.333 438.667M404.333 438.667L404.667 439.333L404.333 438.667M872.333 438.667L872.667 439.333L872.333 438.667z"/>
<path style="fill:#959595; stroke:none;" d="M173.333 439.667L173.667 440.333L173.333 439.667M384.333 439.667L384.667 440.333L384.333 439.667M852.333 439.667L852.667 440.333L852.333 439.667z"/>
<path style="fill:#313131; stroke:none;" d="M192.667 440.333L193.333 440.667L192.667 440.333M403.667 440.333L404.333 440.667L403.667 440.333M871.667 440.333L872.333 440.667L871.667 440.333M173 441L174 442L173 441z"/>
<path style="fill:#565656; stroke:none;" d="M192 441L193 442L192 441z"/>
<path style="fill:#010101; stroke:none;" d="M193.333 441.667L193.667 442.333L193.333 441.667z"/>
<path style="fill:#313131; stroke:none;" d="M384 441L385 442L384 441z"/>
<path style="fill:#565656; stroke:none;" d="M403 441L404 442L403 441z"/>
<path style="fill:#010101; stroke:none;" d="M404.333 441.667L404.667 442.333L404.333 441.667z"/>
<path style="fill:#313131; stroke:none;" d="M852 441L853 442L852 441z"/>
<path style="fill:#565656; stroke:none;" d="M871 441L872 442L871 441z"/>
<path style="fill:#010101; stroke:none;" d="M872.333 441.667L872.667 442.333L872.333 441.667z"/>
<path style="fill:#959595; stroke:none;" d="M192 442L193 443L192 442M403 442L404 443L403 442M871 442L872 443L871 442M174 443L175 444L174 443M193 443L194 444L193 443M385 443L386 444L385 443M404 443L405 444L404 443M853 443L854 444L853 443M872 443L873 444L872 443z"/>
<path style="fill:#565656; stroke:none;" d="M174 444L175 445L174 444M385 444L386 445L385 444M853 444L854 445L853 444z"/>
<path style="fill:#959595; stroke:none;" d="M175.333 446.667L175.667 447.333L175.333 446.667M386.333 446.667L386.667 447.333L386.333 446.667M854.333 446.667L854.667 447.333L854.333 446.667z"/>
<path style="fill:#313131; stroke:none;" d="M175 448L176 449L175 448M386 448L387 449L386 448M854 448L855 449L854 448z"/>
<path style="fill:#959595; stroke:none;" d="M176 450L177 451L176 450M387 450L388 451L387 450M855 450L856 451L855 450z"/>
<path style="fill:#565656; stroke:none;" d="M176 451L177 452L176 451M387 451L388 452L387 451M855 451L856 452L855 451z"/>
<path style="fill:#959595; stroke:none;" d="M177 453L178 454L177 453M388 453L389 454L388 453M856 453L857 454L856 453z"/>
<path style="fill:#565656; stroke:none;" d="M177 454L178 455L177 454z"/>
<path style="fill:#313131; stroke:none;" d="M294.333 454.667L294.667 455.333L294.333 454.667z"/>
<path style="fill:#565656; stroke:none;" d="M321.333 454.667L321.667 455.333L321.333 454.667M388 454L389 455L388 454z"/>
<path style="fill:#313131; stroke:none;" d="M505.333 454.667L505.667 455.333L505.333 454.667z"/>
<path style="fill:#959595; stroke:none;" d="M530 454L530 457L531 457L530 454z"/>
<path style="fill:#565656; stroke:none;" d="M856 454L857 455L856 454z"/>
<path style="fill:#313131; stroke:none;" d="M177 455L178 456L177 455M388 455L389 456L388 455M856 455L857 456L856 455z"/>
<path style="fill:#565656; stroke:none;" d="M238.333 456.667L238.667 457.333L238.333 456.667z"/>
<path style="fill:#313131; stroke:none;" d="M265 456L266 457L265 456z"/>
<path style="fill:#565656; stroke:none;" d="M294 456L295 457L294 456z"/>
<path style="fill:#313131; stroke:none;" d="M321.333 456.667L321.667 457.333L321.333 456.667z"/>
<path style="fill:#565656; stroke:none;" d="M449.333 456.667L449.667 457.333L449.333 456.667z"/>
<path style="fill:#313131; stroke:none;" d="M476 456L477 457L476 456z"/>
<path style="fill:#565656; stroke:none;" d="M505 456L506 457L505 456z"/>
<path style="fill:#959595; stroke:none;" d="M178 457L179 458L178 457z"/>
<path style="fill:#565656; stroke:none;" d="M265 457L266 458L265 457z"/>
<path style="fill:#959595; stroke:none;" d="M294.333 457.667L294.667 458.333L294.333 457.667M389 457L390 458L389 457z"/>
<path style="fill:#565656; stroke:none;" d="M476 457L477 458L476 457z"/>
<path style="fill:#959595; stroke:none;" d="M505.333 457.667L505.667 458.333L505.333 457.667z"/>
<path style="fill:#565656; stroke:none;" d="M530 457L531 458L530 457z"/>
<path style="fill:#959595; stroke:none;" d="M857 457L858 458L857 457z"/>
<path style="fill:#565656; stroke:none;" d="M178 458L179 459L178 458z"/>
<path style="fill:#313131; stroke:none;" d="M238 458L239 459L238 458z"/>
<path style="fill:#959595; stroke:none;" d="M265 458L266 459L265 458z"/>
<path style="fill:#565656; stroke:none;" d="M389 458L390 459L389 458z"/>
<path style="fill:#313131; stroke:none;" d="M449 458L450 459L449 458z"/>
<path style="fill:#959595; stroke:none;" d="M476 458L477 459L476 458z"/>
<path style="fill:#313131; stroke:none;" d="M530 458L531 459L530 458z"/>
<path style="fill:#565656; stroke:none;" d="M857 458L858 459L857 458z"/>
<path style="fill:#959595; stroke:none;" d="M179 460L180 461L179 460z"/>
<path style="fill:#565656; stroke:none;" d="M293 460L294 461L293 460z"/>
<path style="fill:#959595; stroke:none;" d="M320.333 460.667L320.667 461.333L320.333 460.667M390 460L391 461L390 460z"/>
<path style="fill:#565656; stroke:none;" d="M504 460L505 461L504 460z"/>
<path style="fill:#959595; stroke:none;" d="M858 460L859 461L858 460z"/>
<path style="fill:#565656; stroke:none;" d="M179 461L180 462L179 461z"/>
<path style="fill:#959595; stroke:none;" d="M239 461L240 462L239 461z"/>
<path style="fill:#565656; stroke:none;" d="M266 461L267 462L266 461z"/>
<path style="fill:#959595; stroke:none;" d="M293 461L294 462L293 461z"/>
<path style="fill:#565656; stroke:none;" d="M390 461L391 462L390 461z"/>
<path style="fill:#959595; stroke:none;" d="M450 461L451 462L450 461z"/>
<path style="fill:#565656; stroke:none;" d="M477 461L478 462L477 461z"/>
<path style="fill:#959595; stroke:none;" d="M504 461L505 462L504 461z"/>
<path style="fill:#565656; stroke:none;" d="M858 461L859 462L858 461z"/>
<path style="fill:#313131; stroke:none;" d="M179 462L180 463L179 462z"/>
<path style="fill:#565656; stroke:none;" d="M239 462L240 463L239 462z"/>
<path style="fill:#313131; stroke:none;" d="M292 462L293 463L292 462M320 462L321 463L320 462M390 462L391 463L390 462z"/>
<path style="fill:#565656; stroke:none;" d="M450 462L451 463L450 462z"/>
<path style="fill:#959595; stroke:none;" d="M529 462L530 463L529 462z"/>
<path style="fill:#313131; stroke:none;" d="M858 462L859 463L858 462M239 463L240 464L239 463z"/>
<path style="fill:#565656; stroke:none;" d="M267 463L268 464L267 463z"/>
<path style="fill:#959595; stroke:none;" d="M292 463L293 464L292 463z"/>
<path style="fill:#313131; stroke:none;" d="M450 463L451 464L450 463z"/>
<path style="fill:#565656; stroke:none;" d="M478 463L479 464L478 463z"/>
<path style="fill:#959595; stroke:none;" d="M503 463L504 464L503 463z"/>
<path style="fill:#313131; stroke:none;" d="M529 463L530 464L529 463z"/>
<path style="fill:#959595; stroke:none;" d="M180 464L181 465L180 464z"/>
<path style="fill:#313131; stroke:none;" d="M291 464L292 465L291 464z"/>
<path style="fill:#959595; stroke:none;" d="M391 464L392 465L391 464z"/>
<path style="fill:#313131; stroke:none;" d="M502 464L503 465L502 464z"/>
<path style="fill:#959595; stroke:none;" d="M859 464L860 465L859 464z"/>
<path style="fill:#565656; stroke:none;" d="M180 465L181 466L180 465z"/>
<path style="fill:#959595; stroke:none;" d="M240 465L241 466L240 465M268 465L269 466L268 465z"/>
<path style="fill:#565656; stroke:none;" d="M319 465L320 466L319 465M391 465L392 466L391 465z"/>
<path style="fill:#959595; stroke:none;" d="M451 465L452 466L451 465M479 465L480 466L479 465z"/>
<path style="fill:#565656; stroke:none;" d="M859 465L860 466L859 465M240 466L241 467L240 466z"/>
<path style="fill:#959595; stroke:none;" d="M269 466L270 467L269 466z"/>
<path style="fill:#313131; stroke:none;" d="M319 466L320 467L319 466z"/>
<path style="fill:#565656; stroke:none;" d="M451 466L452 467L451 466z"/>
<path style="fill:#959595; stroke:none;" d="M480 466L481 467L480 466z"/>
<path style="fill:#565656; stroke:none;" d="M528 466L529 467L528 466z"/>
<path style="fill:#959595; stroke:none;" d="M181 467L182 468L181 467M270 467L271 468L270 467z"/>
<path style="fill:#313131; stroke:none;" d="M288 467L289 468L288 467z"/>
<path style="fill:#959595; stroke:none;" d="M392 467L393 468L392 467M481 467L482 468L481 467z"/>
<path style="fill:#313131; stroke:none;" d="M499 467L500 468L499 467M528 467L529 468L528 467z"/>
<path style="fill:#959595; stroke:none;" d="M860 467L861 468L860 467z"/>
<path style="fill:#565656; stroke:none;" d="M181 468L182 469L181 468z"/>
<path style="fill:#959595; stroke:none;" d="M241 468L242 469L241 468z"/>
<path style="fill:#313131; stroke:none;" d="M272 468L273 469L272 468z"/>
<path style="fill:#959595; stroke:none;" d="M287 468L288 469L287 468z"/>
<path style="fill:#565656; stroke:none;" d="M318 468L319 469L318 468M392 468L393 469L392 468z"/>
<path style="fill:#959595; stroke:none;" d="M452 468L453 469L452 468z"/>
<path style="fill:#313131; stroke:none;" d="M483 468L484 469L483 468z"/>
<path style="fill:#959595; stroke:none;" d="M498 468L499 469L498 468z"/>
<path style="fill:#565656; stroke:none;" d="M860 468L861 469L860 468z"/>
<path style="fill:#313131; stroke:none;" d="M181 469L182 470L181 469M241 469L242 470L241 469z"/>
<path style="fill:#959595; stroke:none;" d="M274 469L275 470L274 469z"/>
<path style="fill:#313131; stroke:none;" d="M275 469L276 470L275 469z"/>
<path style="fill:#565656; stroke:none;" d="M284 469L285 470L284 469z"/>
<path style="fill:#959595; stroke:none;" d="M285 469L286 470L285 469z"/>
<path style="fill:#313131; stroke:none;" d="M392 469L393 470L392 469M452 469L453 470L452 469z"/>
<path style="fill:#959595; stroke:none;" d="M485 469L486 470L485 469z"/>
<path style="fill:#313131; stroke:none;" d="M486 469L487 470L486 469z"/>
<path style="fill:#565656; stroke:none;" d="M495 469L496 470L495 469z"/>
<path style="fill:#959595; stroke:none;" d="M496 469L497 470L496 469z"/>
<path style="fill:#565656; stroke:none;" d="M527 469L528 470L527 469z"/>
<path style="fill:#313131; stroke:none;" d="M860 469L861 470L860 469z"/>
<path style="fill:#959595; stroke:none;" d="M242 470L243 471L242 470M278 470L278 471L281 471L278 470M317 470L318 471L317 470M453 470L454 471L453 470M489 470L489 471L492 471L489 470M182 471L183 472L182 471z"/>
<path style="fill:#313131; stroke:none;" d="M242 471L243 472L242 471z"/>
<path style="fill:#959595; stroke:none;" d="M393 471L394 472L393 471z"/>
<path style="fill:#313131; stroke:none;" d="M453 471L454 472L453 471z"/>
<path style="fill:#959595; stroke:none;" d="M526 471L527 472L526 471M861 471L862 472L861 471z"/>
<path style="fill:#565656; stroke:none;" d="M182 472L183 473L182 472z"/>
<path style="fill:#959595; stroke:none;" d="M243 472L244 473L243 472M316 472L317 473L316 472z"/>
<path style="fill:#565656; stroke:none;" d="M393 472L394 473L393 472z"/>
<path style="fill:#959595; stroke:none;" d="M454 472L455 473L454 472z"/>
<path style="fill:#565656; stroke:none;" d="M861 472L862 473L861 472z"/>
<path style="fill:#313131; stroke:none;" d="M243 473L244 474L243 473M454 473L455 474L454 473z"/>
<path style="fill:#959595; stroke:none;" d="M525 473L526 474L525 473M183 474L184 475L183 474M244 474L245 475L244 474z"/>
<path style="fill:#565656; stroke:none;" d="M315 474L316 475L315 474z"/>
<path style="fill:#959595; stroke:none;" d="M394 474L395 475L394 474M455 474L456 475L455 474M862 474L863 475L862 474z"/>
<path style="fill:#565656; stroke:none;" d="M183 475L184 476L183 475z"/>
<path style="fill:#959595; stroke:none;" d="M314 475L315 476L314 475z"/>
<path style="fill:#565656; stroke:none;" d="M394 475L395 476L394 475M524 475L525 476L524 475M862 475L863 476L862 475z"/>
<path style="fill:#313131; stroke:none;" d="M183 476L184 477L183 476M245 476L246 477L245 476M394 476L395 477L394 476M456 476L457 477L456 476z"/>
<path style="fill:#959595; stroke:none;" d="M523 476L524 477L523 476z"/>
<path style="fill:#313131; stroke:none;" d="M862 476L863 477L862 476z"/>
<path style="fill:#959595; stroke:none;" d="M246 477L247 478L246 477z"/>
<path style="fill:#313131; stroke:none;" d="M313 477L314 478L313 477z"/>
<path style="fill:#959595; stroke:none;" d="M457 477L458 478L457 477M184 478L185 479L184 478M247 478L248 479L247 478z"/>
<path style="fill:#565656; stroke:none;" d="M312 478L313 479L312 478z"/>
<path style="fill:#959595; stroke:none;" d="M395 478L396 479L395 478M458 478L459 479L458 478z"/>
<path style="fill:#313131; stroke:none;" d="M522 478L523 479L522 478z"/>
<path style="fill:#959595; stroke:none;" d="M863 478L864 479L863 478z"/>
<path style="fill:#565656; stroke:none;" d="M184 479L185 480L184 479z"/>
<path style="fill:#959595; stroke:none;" d="M248 479L249 480L248 479M311 479L312 480L311 479z"/>
<path style="fill:#565656; stroke:none;" d="M395 479L396 480L395 479z"/>
<path style="fill:#959595; stroke:none;" d="M459 479L460 480L459 479z"/>
<path style="fill:#565656; stroke:none;" d="M521 479L522 480L521 479M863 479L864 480L863 479z"/>
<path style="fill:#959595; stroke:none;" d="M249 480L250 481L249 480M310 480L311 481L310 480M520 480L521 481L520 480M185 481L186 482L185 481M250 481L251 482L250 481M309 481L310 482L309 481M396 481L397 482L396 481M519 481L520 482L519 481M864 481L865 482L864 481z"/>
<path style="fill:#565656; stroke:none;" d="M185 482L186 483L185 482z"/>
<path style="fill:#959595; stroke:none;" d="M251 482L252 483L251 482z"/>
<path style="fill:#565656; stroke:none;" d="M308 482L309 483L308 482M396 482L397 483L396 482z"/>
<path style="fill:#959595; stroke:none;" d="M462 482L463 483L462 482M518 482L519 483L518 482z"/>
<path style="fill:#565656; stroke:none;" d="M864 482L865 483L864 482z"/>
<path style="fill:#313131; stroke:none;" d="M185 483L186 484L185 483z"/>
<path style="fill:#959595; stroke:none;" d="M252 483L253 484L252 483z"/>
<path style="fill:#313131; stroke:none;" d="M307 483L308 484L307 483M396 483L397 484L396 483z"/>
<path style="fill:#959595; stroke:none;" d="M463 483L464 484L463 483z"/>
<path style="fill:#565656; stroke:none;" d="M517 483L518 484L517 483z"/>
<path style="fill:#313131; stroke:none;" d="M864 483L865 484L864 483M253 484L254 485L253 484z"/>
<path style="fill:#959595; stroke:none;" d="M305 484L306 485L305 484z"/>
<path style="fill:#565656; stroke:none;" d="M464 484L465 485L464 484z"/>
<path style="fill:#313131; stroke:none;" d="M516 484L517 485L516 484z"/>
<path style="fill:#959595; stroke:none;" d="M186 485L187 486L186 485M255 485L256 486L255 485z"/>
<path style="fill:#565656; stroke:none;" d="M304 485L305 486L304 485z"/>
<path style="fill:#959595; stroke:none;" d="M397 485L398 486L397 485M466 485L467 486L466 485M514 485L515 486L514 485M865 485L866 486L865 485z"/>
<path style="fill:#565656; stroke:none;" d="M186 486L187 487L186 486z"/>
<path style="fill:#959595; stroke:none;" d="M257 486L258 487L257 486M302 486L303 487L302 486z"/>
<path style="fill:#565656; stroke:none;" d="M397 486L398 487L397 486z"/>
<path style="fill:#313131; stroke:none;" d="M467 486L468 487L467 486z"/>
<path style="fill:#959595; stroke:none;" d="M468 486L469 487L468 486z"/>
<path style="fill:#313131; stroke:none;" d="M513 486L514 487L513 486z"/>
<path style="fill:#565656; stroke:none;" d="M865 486L866 487L865 486z"/>
<path style="fill:#313131; stroke:none;" d="M258 487L259 488L258 487z"/>
<path style="fill:#959595; stroke:none;" d="M259 487L260 488L259 487M300 487L301 488L300 487z"/>
<path style="fill:#313131; stroke:none;" d="M469 487L470 488L469 487z"/>
<path style="fill:#959595; stroke:none;" d="M470 487L471 488L470 487z"/>
<path style="fill:#313131; stroke:none;" d="M511 487L512 488L511 487z"/>
<path style="fill:#959595; stroke:none;" d="M187 488L188 489L187 488M261 488L262 489L261 488z"/>
<path style="fill:#565656; stroke:none;" d="M298 488L299 489L298 488z"/>
<path style="fill:#959595; stroke:none;" d="M398 488L399 489L398 488z"/>
<path style="fill:#313131; stroke:none;" d="M471 488L472 489L471 488z"/>
<path style="fill:#959595; stroke:none;" d="M472 488L473 489L472 488M508 488L509 489L508 488z"/>
<path style="fill:#313131; stroke:none;" d="M509 488L510 489L509 488z"/>
<path style="fill:#959595; stroke:none;" d="M866 488L867 489L866 488z"/>
<path style="fill:#565656; stroke:none;" d="M187 489L188 490L187 489z"/>
<path style="fill:#313131; stroke:none;" d="M263 489L264 490L263 489z"/>
<path style="fill:#959595; stroke:none;" d="M264 489L265 490L264 489M295 489L296 490L295 489z"/>
<path style="fill:#313131; stroke:none;" d="M296 489L297 490L296 489z"/>
<path style="fill:#565656; stroke:none;" d="M398 489L399 490L398 489M474 489L475 490L474 489z"/>
<path style="fill:#959595; stroke:none;" d="M475 489L476 490L475 489z"/>
<path style="fill:#565656; stroke:none;" d="M506 489L507 490L506 489M866 489L867 490L866 489z"/>
<path style="fill:#313131; stroke:none;" d="M266 490L267 491L266 490z"/>
<path style="fill:#565656; stroke:none;" d="M267 490L268 491L267 490z"/>
<path style="fill:#959595; stroke:none;" d="M268 490L269 491L268 490M291 490L292 491L291 490z"/>
<path style="fill:#565656; stroke:none;" d="M292 490L293 491L292 490z"/>
<path style="fill:#313131; stroke:none;" d="M477 490L478 491L477 490z"/>
<path style="fill:#959595; stroke:none;" d="M478.667 490.333L479.333 490.667L478.667 490.333M502 490L503 491L502 490z"/>
<path style="fill:#565656; stroke:none;" d="M503 490L504 491L503 490z"/>
<path style="fill:#313131; stroke:none;" d="M271 491L272 492L271 491z"/>
<path style="fill:#565656; stroke:none;" d="M272 491L273 492L272 491z"/>
<path style="fill:#959595; stroke:none;" d="M273.667 491.333L274.333 491.667L273.667 491.333M284.667 491.333L285.333 491.667L284.667 491.333z"/>
<path style="fill:#565656; stroke:none;" d="M286.667 491.333L287.333 491.667L286.667 491.333z"/>
<path style="fill:#313131; stroke:none;" d="M288 491L289 492L288 491M482 491L483 492L482 491z"/>
<path style="fill:#565656; stroke:none;" d="M483 491L484 492L483 491z"/>
<path style="fill:#959595; stroke:none;" d="M484.667 491.333L485.333 491.667L484.667 491.333M495.667 491.333L496.333 491.667L495.667 491.333z"/>
<path style="fill:#565656; stroke:none;" d="M497 491L498 492L497 491z"/>
<path style="fill:#313131; stroke:none;" d="M498.667 491.333L499.333 491.667L498.667 491.333z"/>
</svg>
