<?xml version="1.0" standalone="no"?>
<!DOCTYPE svg PUBLIC "-//W3C//DTD SVG 20010904//EN"
 "http://www.w3.org/TR/2001/REC-SVG-20010904/DTD/svg10.dtd">
<svg version="1.0" xmlns="http://www.w3.org/2000/svg"
 width="1056.000000pt" height="816.000000pt" viewBox="0 0 1056.000000 816.000000"
 preserveAspectRatio="xMidYMid meet">

<g transform="translate(0.000000,816.000000) scale(0.100000,-0.100000)"
fill="#000000" stroke="none">
<path d="M1620 4872 c0 -6 60 -224 134 -484 74 -260 142 -511 151 -558 10 -47
22 -89 26 -95 29 -32 -17 159 -161 665 -116 409 -150 516 -150 472z"/>
<path d="M2180 4070 l0 -809 -142 -4 -143 -3 153 -2 152 -2 0 815 c0 537 -3
815 -10 815 -7 0 -10 -277 -10 -810z"/>
<path d="M3730 4872 c0 -6 60 -224 134 -484 74 -260 142 -511 151 -558 10 -47
22 -89 26 -95 29 -32 -17 159 -161 665 -116 409 -150 516 -150 472z"/>
<path d="M4290 4070 l0 -809 -142 -4 -143 -3 153 -2 152 -2 0 815 c0 537 -3
815 -10 815 -7 0 -10 -277 -10 -810z"/>
<path d="M6770 4535 c0 -223 4 -345 10 -345 6 0 10 122 10 345 0 223 -4 345
-10 345 -6 0 -10 -122 -10 -345z"/>
<path d="M7360 4070 l0 -809 -127 -4 -128 -3 138 -2 137 -2 0 815 c0 537 -3
815 -10 815 -7 0 -10 -277 -10 -810z"/>
<path d="M7860 4070 l0 -809 -127 -4 -128 -3 138 -2 137 -2 0 815 c0 537 -3
815 -10 815 -7 0 -10 -277 -10 -810z"/>
<path d="M8410 4872 c0 -6 60 -224 134 -484 74 -260 142 -511 151 -558 10 -47
22 -89 26 -95 29 -32 -17 159 -161 665 -116 409 -150 516 -150 472z"/>
<path d="M8970 4070 l0 -809 -142 -4 -143 -3 153 -2 152 -2 0 815 c0 537 -3
815 -10 815 -7 0 -10 -277 -10 -810z"/>
<path d="M3060 4836 c0 -2 8 -10 18 -17 15 -13 16 -12 3 4 -13 16 -21 21 -21
13z"/>
<path d="M5196 4799 c53 -56 79 -109 94 -190 13 -69 6 -159 -13 -171 -7 -4
-41 -8 -77 -8 -36 -1 -83 -5 -105 -10 -26 -6 2 -7 85 -3 69 3 127 7 129 9 2 2
6 34 8 71 10 126 -41 252 -126 319 -35 27 -35 26 5 -17z"/>
<path d="M3135 4762 c21 -29 47 -81 59 -115 20 -60 21 -78 21 -567 0 -459 -2
-511 -18 -565 -36 -119 -117 -205 -235 -248 -44 -16 -81 -21 -165 -21 -82 -1
-99 -3 -70 -9 60 -13 201 -1 265 23 108 40 188 124 225 235 15 43 18 112 21
530 2 323 -1 501 -8 545 -14 82 -47 154 -95 205 l-37 40 37 -53z"/>
<path d="M2706 4659 c-20 -17 -40 -47 -46 -67 -13 -49 -13 -984 0 -1033 5 -19
24 -48 42 -65 18 -16 24 -19 14 -7 -43 52 -45 74 -46 573 0 304 4 489 11 513
5 21 23 52 38 69 22 25 38 32 86 38 l60 7 -62 2 c-56 1 -66 -2 -97 -30z"/>
<path d="M4816 4659 c-20 -17 -40 -47 -46 -67 -13 -49 -13 -984 0 -1033 5 -19
24 -48 42 -65 18 -16 25 -20 16 -9 -47 57 -48 66 -48 572 0 305 4 492 11 516
17 63 56 97 119 107 l55 8 -57 1 c-51 1 -61 -3 -92 -30z"/>
<path d="M1558 3840 l3 -579 -118 -4 -118 -3 133 -2 132 -2 -1 403 c0 221 -4
474 -8 562 -18 330 -26 191 -23 -375z"/>
<path d="M3668 3840 l3 -579 -118 -4 -118 -3 133 -2 132 -2 -1 403 c0 221 -4
474 -8 562 -18 330 -26 191 -23 -375z"/>
<path d="M8348 3840 l3 -579 -118 -4 -118 -3 133 -2 132 -2 -1 403 c0 221 -4
474 -8 562 -18 330 -26 191 -23 -375z"/>
<path d="M5308 3853 c-4 -285 -6 -312 -26 -366 -56 -152 -164 -228 -351 -246
l-86 -8 67 -2 c167 -3 306 68 368 188 43 84 50 149 50 454 0 166 -4 287 -9
287 -5 0 -11 -132 -13 -307z"/>
<path d="M6290 4025 l0 -95 -382 -3 -383 -2 398 -3 397 -2 0 100 c0 82 -3 100
-15 100 -12 0 -15 -17 -15 -95z"/>
<path d="M6770 3620 l0 -359 -127 -4 -128 -3 138 -2 137 -2 0 360 0 359 153 4
152 3 -162 2 -163 2 0 -360z"/>
<path d="M4968 3963 c17 -2 47 -2 65 0 17 2 3 4 -33 4 -36 0 -50 -2 -32 -4z"/>
<path d="M4768 3253 c7 -3 16 -2 19 1 4 3 -2 6 -13 5 -11 0 -14 -3 -6 -6z"/>
<path d="M4808 3243 c6 -2 18 -2 25 0 6 3 1 5 -13 5 -14 0 -19 -2 -12 -5z"/>
</g>
</svg>
